<svg xmlns="http://www.w3.org/2000/svg" width="960" height="540" viewBox="0 0 960 540" role="img" aria-labelledby="title desc"><title id="title">计算优化候选的三目标 Pareto</title><desc id="desc">合成质量、吞吐与尾延迟指数；候选名称不承诺通用排序</desc><style>text{font-family:-apple-system,BlinkMacSystemFont,"Segoe UI","Noto Sans CJK SC",sans-serif;fill:#1f2937}.title{font-size:25px;font-weight:700}.sub{font-size:14px;fill:#6b7280}.label{font-size:15px}.small{font-size:12px;fill:#6b7280}.axis{stroke:#9ca3af;stroke-width:1}.grid{stroke:#e5e7eb;stroke-width:1}.blue{fill:#3b6fd4}.green{fill:#2e9e64}.orange{fill:#d9822b}.purple{fill:#7c5cd4}.red{fill:#d64545}</style><rect width="960" height="540" rx="18" fill="#fff"/><text x="48" y="46" class="title">计算优化候选的三目标 Pareto</text><text x="48" y="72" class="sub">合成质量、吞吐与尾延迟指数；候选名称不承诺通用排序</text><line x1="105" y1="130" x2="105" y2="445" class="axis"/><line x1="105" y1="445" x2="815" y2="445" class="axis"/><text x="460" y="505" text-anchor="middle" class="small">业务质量保留率（%）</text><text x="28" y="285" transform="rotate(-90 28 285)" text-anchor="middle" class="small">有效吞吐指数</text><line x1="105" y1="445" x2="105" y2="451" class="axis"/><text x="105" y="473" text-anchor="middle" class="small">98.5</text><line x1="282.5" y1="445" x2="282.5" y2="451" class="axis"/><text x="282.5" y="473" text-anchor="middle" class="small">99</text><line x1="460" y1="445" x2="460" y2="451" class="axis"/><text x="460" y="473" text-anchor="middle" class="small">99.5</text><line x1="637.5" y1="445" x2="637.5" y2="451" class="axis"/><text x="637.5" y="473" text-anchor="middle" class="small">100</text><line x1="815" y1="445" x2="815" y2="451" class="axis"/><text x="815" y="473" text-anchor="middle" class="small">100.5</text><line x1="99" y1="405.625" x2="815" y2="405.625" class="grid"/><text x="90" y="409.625" text-anchor="end" class="small">100</text><line x1="99" y1="326.875" x2="815" y2="326.875" class="grid"/><text x="90" y="330.875" text-anchor="end" class="small">120</text><line x1="99" y1="248.125" x2="815" y2="248.125" class="grid"/><text x="90" y="252.125" text-anchor="end" class="small">140</text><line x1="99" y1="169.375" x2="815" y2="169.375" class="grid"/><text x="90" y="173.375" text-anchor="end" class="small">160</text><circle cx="637.5" cy="405.625" r="11" fill="#d64545"/><text x="622.5" y="389.625" text-anchor="end" class="small">BF16_baseline</text><circle cx="566.499999999999" cy="256" r="11" fill="#d64545"/><text x="581.499999999999" y="240" text-anchor="start" class="small">W8A8</text><circle cx="317.99999999999795" cy="208.75" r="11" fill="#d9822b"/><text x="302.99999999999795" y="192.75" text-anchor="end" class="small">W4A16</text><circle cx="317.99999999999795" cy="177.25" r="11" fill="#2e9e64"/><text x="332.99999999999795" y="161.25" text-anchor="start" class="small">W4A16_Graph</text><circle cx="531.000000000001" cy="240.25" r="11" fill="#2e9e64"/><text x="516.000000000001" y="224.25" text-anchor="end" class="small">W8_Speculative</text><rect x="835" y="165" width="16" height="16" class="green"/><text x="860" y="178" class="small">尾延迟指数 ≤65</text><rect x="835" y="198" width="16" height="16" class="orange"/><text x="860" y="211" class="small">66–85</text><rect x="835" y="231" width="16" height="16" class="red"/><text x="860" y="244" class="small">＞85</text><text x="840" y="295" class="small">合成工作表</text><text x="840" y="316" class="small">非产品基准</text></svg>