<svg version="1.1" xmlns="http://www.w3.org/2000/svg" viewBox="0 0 1083.075 599.5" width="1083.075" height="599.5"><!-- svg-source:excalidraw --><metadata></metadata><defs><style class="style-fonts">
      </style></defs><rect x="0" y="0" width="1083.075" height="599.5" fill="#FFFFFF"></rect><g stroke-linecap="round"><g transform="translate(143.575 54.75) rotate(0 0 241)"><path d="M0 0 C0 100.72, 0 201.44, 0 482" stroke="#6B7280" stroke-width="1.5" fill="none" stroke-dasharray="8 9"></path></g></g><mask></mask><g stroke-linecap="round"><g transform="translate(663.575 54.75) rotate(0 0 241)"><path d="M0 0 C0 107.2, 0 214.4, 0 482" stroke="#6B7280" stroke-width="1.5" fill="none" stroke-dasharray="8 9"></path></g></g><mask></mask><g stroke-linecap="round"><g transform="translate(858.575 54.75) rotate(0 0 241)"><path d="M0 0 C0 113.68, 0 227.37, 0 482" stroke="#6B7280" stroke-width="1.5" fill="none" stroke-dasharray="8 9"></path></g></g><mask></mask><g transform="translate(42.2 10) rotate(0 36.375 18.75)"><text x="36.375" y="13.42529296875" font-family="Helvetica, Segoe UI Emoji" font-size="15px" fill="#6B7280" text-anchor="middle" style="white-space: pre;" direction="ltr" dominant-baseline="alphabetic">≤20 kW/柜</text><text x="36.375" y="32.17529296875" font-family="Helvetica, Segoe UI Emoji" font-size="15px" fill="#6B7280" text-anchor="middle" style="white-space: pre;" direction="ltr" dominant-baseline="alphabetic">传统部署</text></g><g transform="translate(418.2 19.375) rotate(0 82.875 9.375)"><text x="82.875" y="13.42529296875" font-family="Helvetica, Segoe UI Emoji" font-size="15px" fill="#6B7280" text-anchor="middle" style="white-space: pre;" direction="ltr" dominant-baseline="alphabetic">20–130 kW/柜:高密部署</text></g><g transform="translate(816.45 19.375) rotate(0 82.125 9.375)"><text x="82.125" y="13.42529296875" font-family="Helvetica, Segoe UI Emoji" font-size="15px" fill="#6B7280" text-anchor="middle" style="white-space: pre;" direction="ltr" dominant-baseline="alphabetic">≥100 kW/柜:超节点整柜</text></g><g stroke-linecap="round" transform="translate(13.575000000000003 96.75) rotate(0 65 35)"><path d="M0 0 L130 0 L130 70 L0 70" stroke="none" stroke-width="0" fill="#F3F4F6"></path><path d="M0 0 C37.65 0, 75.31 0, 130 0 M0 0 C46.37 0, 92.74 0, 130 0 M130 0 C130 25.26, 130 50.52, 130 70 M130 0 C130 22.04, 130 44.08, 130 70 M130 70 C82.24 70, 34.49 70, 0 70 M130 70 C87.08 70, 44.15 70, 0 70 M0 70 C0 48.13, 0 26.26, 0 0 M0 70 C0 46.41, 0 22.81, 0 0" stroke="#9CA3AF" stroke-width="1.5" fill="none"></path></g><g transform="translate(61.575 114.125) rotate(0 17 10.625)"><text x="17" y="15.21533203125" font-family="Helvetica, Segoe UI Emoji" font-size="17px" fill="#1F2937" text-anchor="middle" style="white-space: pre;" direction="ltr" dominant-baseline="alphabetic">风冷</text></g><g transform="translate(42.27499999999999 141.25) rotate(0 36.30000000000001 7.5)"><text x="36.300000000000004" y="10.740234375" font-family="Helvetica, Segoe UI Emoji" font-size="12px" fill="#6B7280" text-anchor="middle" style="white-space: pre;" direction="ltr" dominant-baseline="alphabetic">PUE 1.4–1.6</text></g><g transform="translate(17.575000000000003 176.625) rotate(0 82.22500000000002 8.125)"><text x="0" y="11.63525390625" font-family="Helvetica, Segoe UI Emoji" font-size="13px" fill="#6B7280" text-anchor="start" style="white-space: pre;" direction="ltr" dominant-baseline="alphabetic">改造成本:低(普通机房即可)</text></g><g stroke-linecap="round" transform="translate(143.575 96.75) rotate(0 32.5 35)"><path d="M0 0 C22.32 0, 44.65 0, 65 0 M65 0 C65 20.35, 65 40.7, 65 70 M65 70 C45.67 70, 26.34 70, 0 70 M0 70 C0 43.14, 0 16.27, 0 0" stroke="#9CA3AF" stroke-width="2" fill="none" stroke-dasharray="8 9.5"></path></g><g transform="translate(70.47500000000001 69.25) rotate(0 105.60000000000001 7.5)"><text x="105.6" y="10.740234375" font-family="Helvetica, Segoe UI Emoji" font-size="12px" fill="#6B7280" text-anchor="middle" style="white-space: pre;" direction="ltr" dominant-baseline="alphabetic">热通道封闭勉强顶到 25–30(PUE 恶化)</text></g><g stroke-linecap="round"><g transform="translate(208.575 131.75) rotate(0 71.5 0)"><path d="M0 0 C52.96 0, 105.91 0, 143 0" stroke="#D64545" stroke-width="2" fill="none" stroke-dasharray="8 9.5"></path></g><g transform="translate(208.575 131.75) rotate(0 71.5 0)"><path d="M119.51 8.55 C128.21 5.38, 136.91 2.22, 143 0" stroke="#D64545" stroke-width="2" fill="none"></path></g><g transform="translate(208.575 131.75) rotate(0 71.5 0)"><path d="M119.51 -8.55 C128.21 -5.38, 136.91 -2.22, 143 0" stroke="#D64545" stroke-width="2" fill="none"></path></g></g><mask></mask><g stroke-linecap="round" transform="translate(351.575 104.75) rotate(0 150 27)"><path d="M0 0 L300 0 L300 54 L0 54" stroke="none" stroke-width="0" fill="#FDECEC"></path><path d="M0 0 C115.13 0, 230.26 0, 300 0 M0 0 C87.36 0, 174.73 0, 300 0 M300 0 C300 18.89, 300 37.78, 300 54 M300 0 C300 20.81, 300 41.63, 300 54 M300 54 C191.07 54, 82.15 54, 0 54 M300 54 C225.94 54, 151.88 54, 0 54 M0 54 C0 38.31, 0 22.63, 0 0 M0 54 C0 35.59, 0 17.17, 0 0" stroke="#D64545" stroke-width="1.5" fill="none"></path></g><g transform="translate(423.175 114.25) rotate(0 78.40000000000003 17.5)"><text x="78.4" y="12.5302734375" font-family="Helvetica, Segoe UI Emoji" font-size="14px" fill="#D64545" text-anchor="middle" style="white-space: pre;" direction="ltr" dominant-baseline="alphabetic">强行加密部署 → 热节流:</text><text x="78.4" y="30.0302734375" font-family="Helvetica, Segoe UI Emoji" font-size="14px" fill="#D64545" text-anchor="middle" style="white-space: pre;" direction="ltr" dominant-baseline="alphabetic">可持续算力塌陷</text></g><g stroke-linecap="round" transform="translate(143.575 236.75) rotate(0 357.5 35)"><path d="M0 0 L715 0 L715 70 L0 70" stroke="none" stroke-width="0" fill="#EEF4FF"></path><path d="M0 0 C150.62 0, 301.24 0, 715 0 M0 0 C256.13 0, 512.26 0, 715 0 M715 0 C715 22.26, 715 44.53, 715 70 M715 0 C715 22.39, 715 44.79, 715 70 M715 70 C476.69 70, 238.38 70, 0 70 M715 70 C453.36 70, 191.73 70, 0 70 M0 70 C0 50.11, 0 30.21, 0 0 M0 70 C0 46.05, 0 22.11, 0 0" stroke="#3B6FD4" stroke-width="1.5" fill="none"></path></g><g transform="translate(383.775 248.125) rotate(0 117.29999999999998 10.625)"><text x="117.30000000000001" y="15.21533203125" font-family="Helvetica, Segoe UI Emoji" font-size="17px" fill="#1F2937" text-anchor="middle" style="white-space: pre;" direction="ltr" dominant-baseline="alphabetic">冷板式液冷    PUE 1.15–1.3</text></g><g transform="translate(400.97499999999997 276.625) rotate(0 100.10000000000002 8.125)"><text x="100.10000000000001" y="11.63525390625" font-family="Helvetica, Segoe UI Emoji" font-size="13px" fill="#6B7280" text-anchor="middle" style="white-space: pre;" direction="ltr" dominant-baseline="alphabetic">改造成本:中(CDU/水路/承重复核)</text></g><g transform="translate(147.575 318.625) rotate(0 123.17500000000001 8.125)"><text x="0" y="11.63525390625" font-family="Helvetica, Segoe UI Emoji" font-size="13px" fill="#6B7280" text-anchor="start" style="white-space: pre;" direction="ltr" dominant-baseline="alphabetic">约 70–85% 热量走液路,其余仍需风冷兜底</text></g><g stroke-linecap="round" transform="translate(631.075 314.75) rotate(0 115 16)"><path d="M0 0 L230 0 L230 32 L0 32" stroke="none" stroke-width="0" fill="#FDECEC"></path><path d="M0 0 C60.82 0, 121.64 0, 230 0 M0 0 C67.21 0, 134.43 0, 230 0 M230 0 C230 8.15, 230 16.29, 230 32 M230 0 C230 12.44, 230 24.88, 230 32 M230 32 C167.05 32, 104.09 32, 0 32 M230 32 C183.07 32, 136.14 32, 0 32 M0 32 C0 23.31, 0 14.61, 0 0 M0 32 C0 20.98, 0 9.96, 0 0" stroke="#D64545" stroke-width="1.5" fill="none"></path></g><g transform="translate(690.5 322.625) rotate(0 55.57499999999999 8.125)"><text x="55.575" y="11.63525390625" font-family="Helvetica, Segoe UI Emoji" font-size="13px" fill="#D64545" text-anchor="middle" style="white-space: pre;" direction="ltr" dominant-baseline="alphabetic">漏液:新增故障类别</text></g><g stroke-linecap="round" transform="translate(663.575 386.75) rotate(0 195 35)"><path d="M0 0 L390 0 L390 70 L0 70" stroke="none" stroke-width="0" fill="#E9F7EF"></path><path d="M0 0 C113.62 0, 227.24 0, 390 0 M0 0 C140.11 0, 280.21 0, 390 0 M390 0 C390 15.6, 390 31.19, 390 70 M390 0 C390 22.63, 390 45.26, 390 70 M390 70 C294.87 70, 199.74 70, 0 70 M390 70 C264 70, 137.99 70, 0 70 M0 70 C0 51.42, 0 32.84, 0 0 M0 70 C0 45.82, 0 21.63, 0 0" stroke="#2E9E64" stroke-width="1.5" fill="none"></path></g><g transform="translate(804.95 396) rotate(0 53.625 18.75)"><text x="53.625" y="13.42529296875" font-family="Helvetica, Segoe UI Emoji" font-size="15px" fill="#1F2937" text-anchor="middle" style="white-space: pre;" direction="ltr" dominant-baseline="alphabetic">浸没式液冷</text><text x="53.625" y="32.17529296875" font-family="Helvetica, Segoe UI Emoji" font-size="15px" fill="#1F2937" text-anchor="middle" style="white-space: pre;" direction="ltr" dominant-baseline="alphabetic">PUE 1.05–1.15</text></g><g transform="translate(663.575 468.625) rotate(0 141.375 8.125)"><text x="0" y="11.63525390625" font-family="Helvetica, Segoe UI Emoji" font-size="13px" fill="#6B7280" text-anchor="start" style="white-space: pre;" direction="ltr" dominant-baseline="alphabetic">改造成本:高(全新机房设计/专用槽体/运维重构)</text></g><g transform="translate(474.075 406.625) rotate(0 87.75 8.125)"><text x="0" y="11.63525390625" font-family="Helvetica, Segoe UI Emoji" font-size="13px" fill="#6B7280" text-anchor="start" style="white-space: pre;" direction="ltr" dominant-baseline="alphabetic">密度未到 100 kW:过度设计 →</text></g><g transform="translate(716.6750000000001 196.75) rotate(0 44.400000000000034 15)"><text x="44.400000000000006" y="10.740234375" font-family="Helvetica, Segoe UI Emoji" font-size="12px" fill="#6B7280" text-anchor="middle" style="white-space: pre;" direction="ltr" dominant-baseline="alphabetic">100–130:两方案</text><text x="44.400000000000006" y="25.740234375" font-family="Helvetica, Segoe UI Emoji" font-size="12px" fill="#6B7280" text-anchor="middle" style="white-space: pre;" direction="ltr" dominant-baseline="alphabetic">均可(重叠区)</text></g><g stroke-linecap="round"><g transform="translate(13.575000000000003 536.75) rotate(0 529.75 0)"><path d="M0 0 C379.9 0, 759.81 0, 1059.5 0 M0 0 C240.26 0, 480.51 0, 1059.5 0" stroke="#6B7280" stroke-width="1.5" fill="none"></path></g><g transform="translate(13.575000000000003 536.75) rotate(0 529.75 0)"><path d="M1036.01 8.55 C1044.43 5.48, 1052.85 2.42, 1059.5 0 M1036.01 8.55 C1041.33 6.61, 1046.66 4.67, 1059.5 0" stroke="#6B7280" stroke-width="1.5" fill="none"></path></g><g transform="translate(13.575000000000003 536.75) rotate(0 529.75 0)"><path d="M1036.01 -8.55 C1044.43 -5.48, 1052.85 -2.42, 1059.5 0 M1036.01 -8.55 C1041.33 -6.61, 1046.66 -4.67, 1059.5 0" stroke="#6B7280" stroke-width="1.5" fill="none"></path></g></g><mask></mask><g stroke-linecap="round"><g transform="translate(13.575000000000003 531.75) rotate(0 0 5)"><path d="M0 0 C0 3.72, 0 7.44, 0 10 M0 0 C0 3.6, 0 7.21, 0 10" stroke="#6B7280" stroke-width="1.5" fill="none"></path></g></g><mask></mask><g transform="translate(10 546.625) rotate(0 3.575000000000003 8.125)"><text x="3.575" y="11.63525390625" font-family="Helvetica, Segoe UI Emoji" font-size="13px" fill="#6B7280" text-anchor="middle" style="white-space: pre;" direction="ltr" dominant-baseline="alphabetic">0</text></g><g stroke-linecap="round"><g transform="translate(143.575 531.75) rotate(0 0 5)"><path d="M0 0 C0 3.99, 0 7.98, 0 10 M0 0 C0 2.27, 0 4.55, 0 10" stroke="#6B7280" stroke-width="1.5" fill="none"></path></g></g><mask></mask><g transform="translate(136.425 546.625) rotate(0 7.1499999999999915 8.125)"><text x="7.15" y="11.63525390625" font-family="Helvetica, Segoe UI Emoji" font-size="13px" fill="#6B7280" text-anchor="middle" style="white-space: pre;" direction="ltr" dominant-baseline="alphabetic">20</text></g><g stroke-linecap="round"><g transform="translate(338.575 531.75) rotate(0 0 5)"><path d="M0 0 C0 2.26, 0 4.52, 0 10 M0 0 C0 2.94, 0 5.89, 0 10" stroke="#6B7280" stroke-width="1.5" fill="none"></path></g></g><mask></mask><g transform="translate(331.425 546.625) rotate(0 7.150000000000006 8.125)"><text x="7.15" y="11.63525390625" font-family="Helvetica, Segoe UI Emoji" font-size="13px" fill="#6B7280" text-anchor="middle" style="white-space: pre;" direction="ltr" dominant-baseline="alphabetic">50</text></g><g stroke-linecap="round"><g transform="translate(663.575 531.75) rotate(0 0 5)"><path d="M0 0 C0 2.53, 0 5.05, 0 10 M0 0 C0 3.61, 0 7.23, 0 10" stroke="#6B7280" stroke-width="1.5" fill="none"></path></g></g><mask></mask><g transform="translate(652.85 546.625) rotate(0 10.725000000000023 8.125)"><text x="10.725000000000001" y="11.63525390625" font-family="Helvetica, Segoe UI Emoji" font-size="13px" fill="#6B7280" text-anchor="middle" style="white-space: pre;" direction="ltr" dominant-baseline="alphabetic">100</text></g><g stroke-linecap="round"><g transform="translate(858.575 531.75) rotate(0 0 5)"><path d="M0 0 C0 2.8, 0 5.59, 0 10 M0 0 C0 2.28, 0 4.57, 0 10" stroke="#6B7280" stroke-width="1.5" fill="none"></path></g></g><mask></mask><g transform="translate(847.85 546.625) rotate(0 10.725000000000023 8.125)"><text x="10.725000000000001" y="11.63525390625" font-family="Helvetica, Segoe UI Emoji" font-size="13px" fill="#6B7280" text-anchor="middle" style="white-space: pre;" direction="ltr" dominant-baseline="alphabetic">130</text></g><g stroke-linecap="round"><g transform="translate(988.575 531.75) rotate(0 0 5)"><path d="M0 0 C0 3.06, 0 6.13, 0 10 M0 0 C0 2.95, 0 5.91, 0 10" stroke="#6B7280" stroke-width="1.5" fill="none"></path></g></g><mask></mask><g transform="translate(977.8500000000001 546.625) rotate(0 10.725000000000023 8.125)"><text x="10.725000000000001" y="11.63525390625" font-family="Helvetica, Segoe UI Emoji" font-size="13px" fill="#6B7280" text-anchor="middle" style="white-space: pre;" direction="ltr" dominant-baseline="alphabetic">150</text></g><g transform="translate(725.325 572) rotate(0 68.25 8.75)"><text x="68.25" y="12.5302734375" font-family="Helvetica, Segoe UI Emoji" font-size="14px" fill="#6B7280" text-anchor="middle" style="white-space: pre;" direction="ltr" dominant-baseline="alphabetic">机柜功率密度(kW/柜)</text></g></svg>